<svg xmlns="http://www.w3.org/2000/svg" width="1000" height="436" viewBox="0 0 1000 436">
<rect width="1000" height="436" rx="16" fill="#0B1220"/>
<text x="28" y="36" fill="#F8FAFC" font-size="22" font-family="Segoe UI,Microsoft YaHei,sans-serif" font-weight="700">PSRAM 8 MB — 占用长方形图</text>
<text x="28" y="58" fill="#94A3B8" font-size="13" font-family="Segoe UI,Microsoft YaHei,sans-serif">上：相对整片 8MB 真实比例；下：已知缓冲子长方形，由高到低，右侧注明源码位置</text>
<rect x="28" y="78" width="944" height="64" rx="8" fill="#020617" stroke="#334155" stroke-width="2"/>
<rect x="28.0" y="78" width="36.9" height="64" fill="#EF4444"/>
<rect x="64.9" y="78" width="14.8" height="64" fill="#FB923C"/>
<rect x="79.6" y="78" width="6.0" height="64" fill="#22D3EE"/>
<rect x="85.6" y="78" width="890.2" height="64" fill="#1E293B"/>
<text x="530.7" y="115.0" fill="#94A3B8" font-size="14" text-anchor="middle" font-family="Segoe UI,Microsoft YaHei,sans-serif">空闲堆 ≈ 7.54 MB</text>
<text x="28" y="182" fill="#F8FAFC" font-size="16" font-family="Segoe UI,Microsoft YaHei,sans-serif" font-weight="700">已知缓冲（左侧色条宽度 = 相对整片 PSRAM；由高到低）</text>
<rect x="28.0" y="198" width="396.5" height="52" rx="8" fill="#1E293B" stroke="#475569" stroke-width="1.5"/>
<rect x="28.0" y="198" width="15.5" height="52" rx="8" fill="#EF4444"/>
<text x="442.5" y="220" fill="#F8FAFC" font-size="15" font-weight="700" font-family="Segoe UI,Microsoft YaHei,sans-serif">1. 录音 PCM  ·  320.0 KB  (3.91% PSRAM)</text>
<text x="442.5" y="240" fill="#94A3B8" font-size="12" font-family="Consolas,Segoe UI,Microsoft YaHei,monospace">main/audio.c → VOICE_MAX_RECORD_BYTES</text>
<rect x="28.0" y="264" width="396.5" height="52" rx="8" fill="#1E293B" stroke="#475569" stroke-width="1.5"/>
<rect x="28.0" y="264" width="10.0" height="52" rx="8" fill="#FB923C"/>
<text x="442.5" y="286" fill="#F8FAFC" font-size="15" font-weight="700" font-family="Segoe UI,Microsoft YaHei,sans-serif">2. 播放 ring  ·  128.0 KB  (1.56% PSRAM)</text>
<text x="442.5" y="306" fill="#94A3B8" font-size="12" font-family="Consolas,Segoe UI,Microsoft YaHei,monospace">main/audio.c → VOICE_PLAY_RING_BYTES</text>
<rect x="28.0" y="330" width="396.5" height="52" rx="8" fill="#1E293B" stroke="#475569" stroke-width="1.5"/>
<rect x="28.0" y="330" width="10.0" height="52" rx="8" fill="#22D3EE"/>
<text x="442.5" y="352" fill="#F8FAFC" font-size="15" font-weight="700" font-family="Segoe UI,Microsoft YaHei,sans-serif">3. LVGL partial×2  ·  18.8 KB  (0.23% PSRAM)</text>
<text x="442.5" y="372" fill="#94A3B8" font-size="12" font-family="Consolas,Segoe UI,Microsoft YaHei,monospace">main/display.c（优先 PSRAM）</text>
<text x="28" y="404" fill="#94A3B8" font-size="13" font-family="Segoe UI,Microsoft YaHei,sans-serif">已知缓冲合计 466.8 KB（5.70%）。表情双缓冲约 32KB 在片内 DRAM，不在此图。</text>
</svg>